<?xml version="1.0" standalone="no"?>
<!DOCTYPE svg PUBLIC "-//W3C//DTD SVG 20010904//EN"
 "http://www.w3.org/TR/2001/REC-SVG-20010904/DTD/svg10.dtd">
<svg version="1.0" xmlns="http://www.w3.org/2000/svg"
 width="512.000000pt" height="512.000000pt" viewBox="0 0 512.000000 512.000000"
 preserveAspectRatio="xMidYMid meet">
<metadata>
Created by potrace 1.14, written by Peter Selinger 2001-2017
</metadata>
<g transform="translate(0.000000,512.000000) scale(0.100000,-0.100000)"
fill="#000000" stroke="none">
<path d="M4195 4794 c-224 -40 -399 -91 -655 -191 -322 -126 -580 -269 -580
-322 0 -27 57 -107 107 -149 l44 -39 -48 -15 c-71 -23 -197 -75 -255 -104
l-50 -26 -32 31 c-17 16 -53 39 -79 50 l-49 21 30 53 c44 79 111 171 196 272
86 101 101 137 84 203 -8 33 -20 49 -47 68 -102 67 -168 38 -305 -136 -265
-335 -409 -669 -423 -985 -5 -109 -3 -136 11 -162 23 -45 67 -73 114 -73 59 0
83 12 158 80 82 74 227 183 311 234 146 87 414 200 575 241 84 22 89 22 110 5
13 -9 93 -61 178 -115 85 -54 157 -100 159 -102 8 -6 -233 -348 -382 -543
-329 -428 -818 -923 -1267 -1281 -181 -143 -578 -429 -597 -429 -4 0 -28 35
-53 78 -24 42 -81 131 -125 198 l-81 121 17 59 c83 294 263 623 449 824 77 83
104 133 97 180 -6 50 -41 99 -83 116 -95 40 -403 -14 -629 -109 -200 -85 -433
-232 -576 -365 -80 -74 -99 -105 -99 -162 0 -56 23 -96 70 -120 80 -41 116
-27 273 105 52 44 137 106 188 138 l93 57 18 -47 c9 -25 32 -61 50 -80 29 -30
31 -36 21 -61 -85 -205 -107 -258 -110 -261 -1 -2 -29 21 -62 52 -60 58 -102
77 -130 60 -58 -36 -185 -275 -295 -555 -107 -270 -163 -459 -201 -682 -27
-161 -14 -300 41 -437 79 -193 278 -357 492 -405 107 -24 269 -15 379 20 170
55 326 190 408 355 l25 50 63 -29 c142 -64 363 -120 548 -140 479 -50 1030 85
1436 353 211 139 376 287 526 469 283 345 445 708 514 1148 26 167 23 493 -5
650 -24 134 -80 324 -122 417 -17 37 -29 67 -28 68 2 2 23 13 48 25 146 74
263 187 331 322 97 192 97 444 0 636 -58 114 -168 233 -274 295 -139 81 -323
106 -522 71z m-71 -1361 c3 -10 10 -53 15 -96 38 -283 -38 -642 -206 -968
-233 -455 -734 -958 -1175 -1180 -231 -116 -376 -166 -583 -199 -203 -34 -490
-21 -490 22 0 11 53 50 145 109 376 238 784 583 1250 1055 441 447 762 842
984 1212 39 65 51 74 60 45z"/>
</g>
</svg>
